<svg xmlns="http://www.w3.org/2000/svg" viewBox="0 0 48 48">
  <rect fill="#6366f1" height="48" width="48" rx="12" />
  <g fill="#e0e7ff">
    <path d="m10.5 11.625h21.6c1.8902 0 2.8353 0 3.5572.3679.6351.3235 1.1514.8398 1.4749 1.4749.3679.7219.3679 1.667.3679 3.5572v1.35h-21.6c-1.8902 0-2.8353 0-3.5572-.3679-.6351-.3235-1.1514-.8398-1.4749-1.4749-.3679-.7219-.3679-1.667-.3679-3.5572z" />
    <path d="m10.5 27.375h21.6c1.8902 0 2.8353 0 3.5572-.3679.6351-.3235 1.1514-.8398 1.4749-1.4749.3679-.7219.3679-1.667.3679-3.5572v-1.35h-21.6c-1.8902 0-2.8353 0-3.5572.3679-.6351.3235-1.1514.8398-1.4749 1.4749-.3679.7219-.3679 1.667-.3679 3.5572z" />
    <path d="m21 29.625h11.1c1.8902 0 2.8353 0 3.5572.3679.6351.3235 1.1514.8398 1.4749 1.4749.3679.7219.3679 1.667.3679 3.5572v1.35h-11.1c-1.8902 0-2.8353 0-3.5572-.3679-.6351-.3235-1.1514-.8398-1.4749-1.4749-.3679-.7219-.3679-1.667-.3679-3.5572z" />
  </g>
</svg>
